<svg width="660" height="247" viewBox="0 0 660 247" fill="none" xmlns="http://www.w3.org/2000/svg">
<g filter="url(#filter0_d)">
<rect x="4" width="652" height="239" rx="30" fill="white"/>
</g>
<path d="M282.652 121.915C282.652 96.8182 270 79.5839 270 67.4909C270 55.3979 276.766 30 330.91 30C385.055 30 393 64.1674 393 77.4686C393.004 139.755 282.652 166.361 282.652 121.915V121.915Z" fill="#EFEFEF"/>
<g clip-path="url(#clip0)">
<path d="M275.299 113.335C275.89 116.11 278.373 118.069 281.208 117.999H281.998V128C281.998 129.104 282.894 130 283.999 130H303.999C305.104 130 305.999 129.104 305.999 128V117.999H354.001V128C354.001 129.104 354.897 130 356.001 130H376.002C377.106 130 378.002 129.104 378.002 128V117.999H378.803C381.638 118.069 384.121 116.11 384.712 113.335L389.834 85.7979C390.37 82.9169 389.591 79.9471 387.71 77.7C385.75 75.3434 382.841 73.9859 379.776 73.9977H374.002V69.9975H384.002C385.107 69.9975 386.002 69.102 386.002 67.9975V59.9972C386.002 58.8926 385.107 57.9971 384.002 57.9971H374.002V51.9969C373.993 44.2681 367.73 38.0052 360.001 37.9964H299.999C292.271 38.0052 286.007 44.2681 285.999 51.9969V57.9971H275.998C274.894 57.9971 273.998 58.8926 273.998 59.9972V67.9975C273.998 69.102 274.894 69.9975 275.998 69.9975H285.999V73.9977H280.225C277.161 73.984 274.252 75.3385 272.29 77.6912C270.408 79.9412 269.629 82.914 270.166 85.7979L275.299 113.335ZM374.002 61.9972H382.002V65.9974H374.002V61.9972ZM301.999 126H285.999V117.999H301.999V126ZM374.002 126H358.001V117.999H374.002V126ZM289.999 67.9975V51.9969C290.006 46.4762 294.479 42.0033 299.999 41.9965H360.001C365.522 42.0033 369.996 46.4762 370.002 51.9969V73.9977H289.999V67.9975ZM277.998 65.9974V61.9972H285.999V65.9974H277.998ZM275.366 80.2479C276.57 78.8113 278.351 77.9861 280.225 77.9978H379.776C381.65 77.9861 383.432 78.8113 384.635 80.2479C385.753 81.5819 386.218 83.3457 385.903 85.0576L380.771 112.599C380.521 113.472 379.698 114.054 378.792 113.999H281.208C280.302 114.055 279.48 113.472 279.231 112.599L274.099 85.0576C273.783 83.3457 274.248 81.5819 275.366 80.2479V80.2479Z" fill="black"/>
<path d="M291.999 105.999C297.522 105.999 301.999 101.521 301.999 95.9985C301.999 90.4748 297.522 85.9981 291.999 85.9981C286.476 85.9981 281.998 90.4748 281.998 95.9985C282.005 101.518 286.479 105.992 291.999 105.999ZM291.999 89.9983C295.313 89.9983 297.999 92.6849 297.999 95.9985C297.999 99.3121 295.313 101.999 291.999 101.999C288.685 101.999 285.999 99.3121 285.999 95.9985C285.999 92.6849 288.685 89.9983 291.999 89.9983Z" fill="black"/>
<path d="M368.002 105.999C373.525 105.999 378.002 101.521 378.002 95.9985C378.002 90.4748 373.525 85.9981 368.002 85.9981C362.479 85.9981 358.001 90.4748 358.001 95.9985C358.008 101.518 362.482 105.992 368.002 105.999ZM368.002 89.9983C371.316 89.9983 374.002 92.6849 374.002 95.9985C374.002 99.3121 371.316 101.999 368.002 101.999C364.688 101.999 362.001 99.3121 362.001 95.9985C362.001 92.6849 364.688 89.9983 368.002 89.9983Z" fill="black"/>
<path d="M307.999 105.999H352.001C353.106 105.999 354.001 105.103 354.001 103.999V87.9982C354.001 86.8936 353.106 85.9981 352.001 85.9981H307.999C306.895 85.9981 305.999 86.8936 305.999 87.9982V103.999C305.999 105.103 306.895 105.999 307.999 105.999ZM309.999 89.9983H350.001V93.9984H309.999V89.9983ZM309.999 97.9985H350.001V101.999H309.999V97.9985Z" fill="black"/>
<path d="M297.999 57.9971H293.999V69.9975H305.999V65.9974H297.999V57.9971Z" fill="black"/>
<path d="M362.001 65.9974H354.001V69.9975H366.002V57.9971H362.001V65.9974Z" fill="black"/>
</g>
<path d="M72.3112 117.24C72.3112 95.1442 60.8655 79.9706 60.8655 69.3235C60.8655 58.6764 66.9861 36.3153 115.967 36.3153C164.947 36.3153 172.134 66.3974 172.134 78.1082C172.138 132.947 72.3112 156.372 72.3112 117.24V117.24Z" fill="#EFEFEF"/>
<path d="M72.3112 117.24C72.3112 95.1442 60.8655 79.9706 60.8655 69.3235C60.8655 58.6764 66.9861 36.3153 115.967 36.3153C164.947 36.3153 172.134 66.3974 172.134 78.1082C172.138 132.947 72.3112 156.372 72.3112 117.24V117.24Z" fill="#EFEFEF"/>
<path d="M162.819 44.9722C160.178 44.9722 158.028 42.8224 158.028 40.1806C158.028 37.5387 160.178 35.3889 162.819 35.3889C165.461 35.3889 167.611 37.5387 167.611 40.1806C167.611 42.8224 165.461 44.9722 162.819 44.9722ZM162.819 38.5833C161.941 38.5833 161.222 39.3021 161.222 40.1806C161.222 41.059 161.941 41.7778 162.819 41.7778C163.698 41.7778 164.417 41.059 164.417 40.1806C164.417 39.3021 163.698 38.5833 162.819 38.5833Z" fill="#A4AFC1"/>
<path d="M143.653 88.8958L142.854 63.3403H107.971C93.8514 63.3403 81.5528 73.9139 80.6264 87.9056C79.6041 103.239 91.8389 116.049 107.044 116.049C121.643 116.049 133.526 103.431 133.526 88.8958H143.653Z" fill="#F3F3F1"/>
<path d="M106.917 100.076C112.65 100.076 117.299 95.4282 117.299 89.6944C117.299 83.9607 112.65 79.3125 106.917 79.3125C101.183 79.3125 96.5347 83.9607 96.5347 89.6944C96.5347 95.4282 101.183 100.076 106.917 100.076Z" fill="#2FDF84"/>
<path d="M149.243 100.076H147.646C145.883 100.076 144.451 98.6453 144.451 96.8819V56.9514C144.451 55.188 145.883 53.7569 147.646 53.7569H149.243C151.006 53.7569 152.438 55.188 152.438 56.9514V96.8819C152.438 98.6453 151.006 100.076 149.243 100.076Z" fill="#2FDF84"/>
<path d="M87.8139 87.9056C88.7403 73.9139 101.039 63.3403 115.158 63.3403H107.971C93.8514 63.3403 81.5528 73.9139 80.6264 87.9056C79.6041 103.239 91.8389 116.049 107.044 116.049C108.246 116.049 109.421 115.934 110.581 115.768C97.1257 113.912 86.8747 101.987 87.8139 87.9056V87.9056Z" fill="#D5DBE1"/>
<path d="M103.722 89.6944C103.722 85.2286 106.556 81.456 110.51 79.9897C109.386 79.5744 108.185 79.3125 106.917 79.3125C101.183 79.3125 96.5347 83.9604 96.5347 89.6944C96.5347 95.4285 101.183 100.076 106.917 100.076C108.185 100.076 109.386 99.8144 110.51 99.3992C106.556 97.9329 103.722 94.1603 103.722 89.6944Z" fill="#00B871"/>
<path d="M151.639 96.8819V56.9514C151.639 56.4147 151.805 55.9323 152.038 55.4883C151.505 54.4725 150.47 53.7569 149.243 53.7569H147.646C145.883 53.7569 144.451 55.188 144.451 56.9514V96.8819C144.451 98.6453 145.883 100.076 147.646 100.076H149.243C150.47 100.076 151.505 99.3608 152.038 98.345C151.805 97.901 151.639 97.4186 151.639 96.8819Z" fill="#00B871"/>
<path d="M107.035 118.444C99.0583 118.444 91.3597 115.103 85.9132 109.276C80.4219 103.405 77.6971 95.7575 78.2369 87.7395C79.2368 72.716 92.2989 60.9445 107.971 60.9445H142.854V65.7361H107.971C94.8129 65.7361 83.8496 75.5399 83.0126 88.0557C82.5654 94.7385 84.8366 101.111 89.4111 106.002C93.9568 110.861 100.381 113.653 107.035 113.653C120.311 113.653 131.115 102.907 131.115 89.6945H135.906C135.906 105.548 122.956 118.444 107.035 118.444V118.444Z" fill="black"/>
<path d="M143.653 91.2917H121.675C119.129 91.2917 116.682 90.1193 114.954 88.0749L118.615 84.9858C119.442 85.9633 120.528 86.5 121.675 86.5H143.653V91.2917Z" fill="black"/>
<path d="M106.917 102.472C99.8697 102.472 94.1389 96.7414 94.1389 89.6945C94.1389 82.6475 99.8697 76.9167 106.917 76.9167C113.964 76.9167 119.694 82.6475 119.694 89.6945C119.694 96.7414 113.964 102.472 106.917 102.472ZM106.917 81.7084C102.511 81.7084 98.9305 85.2893 98.9305 89.6945C98.9305 94.0996 102.511 97.6806 106.917 97.6806C111.322 97.6806 114.903 94.0996 114.903 89.6945C114.903 85.2893 111.322 81.7084 106.917 81.7084Z" fill="black"/>
<path d="M104.521 80.1111H109.313V99.2778H104.521V80.1111Z" fill="black"/>
<path d="M149.243 102.472H147.646C144.563 102.472 142.055 99.9646 142.055 96.8819V56.9514C142.055 53.8688 144.563 51.3611 147.646 51.3611H149.243C152.326 51.3611 154.833 53.8688 154.833 56.9514V96.8819C154.833 99.9646 152.326 102.472 149.243 102.472ZM147.646 56.1528C147.205 56.1528 146.847 56.5106 146.847 56.9514V96.8819C146.847 97.3228 147.205 97.6806 147.646 97.6806H149.243C149.684 97.6806 150.042 97.3228 150.042 96.8819V56.9514C150.042 56.5106 149.684 56.1528 149.243 56.1528H147.646Z" fill="black"/>
<path d="M496.932 120.753C496.932 94.3349 485 76.1936 485 63.4641C485 50.7346 491.381 24 542.444 24C593.507 24 601 59.9657 601 73.967C601.003 139.532 496.932 167.538 496.932 120.753V120.753Z" fill="#EFEFEF"/>
<path d="M595.5 117.094H494.512C492.575 117.161 490.864 115.846 490.43 113.959L485.119 85.4562C484.701 83.0066 485.396 80.4973 487.015 78.6116C488.633 76.7259 491.008 75.6597 493.493 75.7012H596.507C598.992 75.6597 601.367 76.7259 602.985 78.6116C604.604 80.4973 605.299 83.0066 604.881 85.4562L599.57 113.959C599.137 115.842 597.431 117.156 595.5 117.094Z" fill="#55B56A"/>
<path d="M513.955 38.4476H576.044C582.903 38.4476 588.462 44.0077 588.462 50.8654V75.7012H501.537V50.8654C501.537 44.0077 507.097 38.4476 513.955 38.4476Z" fill="#87CEE9"/>
<path d="M497.398 117.094H518.094V129.512H497.398V117.094Z" fill="#394D5C"/>
<path d="M571.905 117.094H592.601V129.512H571.905V117.094Z" fill="#394D5C"/>
<path d="M513.955 96.3977C513.955 100.97 510.249 104.676 505.676 104.676C501.104 104.676 497.398 100.97 497.398 96.3977C497.398 91.8258 501.104 88.1191 505.676 88.1191C510.249 88.1191 513.955 91.8258 513.955 96.3977Z" fill="#FDBD40"/>
<path d="M592.601 96.3977C592.601 100.97 588.896 104.676 584.323 104.676C579.751 104.676 576.044 100.97 576.044 96.3977C576.044 91.8258 579.751 88.1191 584.323 88.1191C588.896 88.1191 592.601 91.8258 592.601 96.3977Z" fill="#FDBD40"/>
<path d="M522.233 88.1191H567.766V104.676H522.233V88.1191Z" fill="#FDBD40"/>
<path d="M565.696 98.4673H524.303C523.16 98.4673 522.233 97.5416 522.233 96.3977C522.233 95.2547 523.16 94.328 524.303 94.328H565.696C566.84 94.328 567.766 95.2547 567.766 96.3977C567.766 97.5416 566.84 98.4673 565.696 98.4673Z" fill="#195C85"/>
<path d="M588.462 59.144H600.88V67.4226H588.462V59.144Z" fill="#195C85"/>
<path d="M489.119 59.144H501.537V67.4226H489.119V59.144Z" fill="#195C85"/>
<path d="M520.164 69.4923H507.746V57.0744H511.885V65.353H520.164V69.4923Z" fill="white"/>
<path d="M582.253 69.4923H569.835V65.353H578.114V57.0744H582.253V69.4923Z" fill="white"/>
<path d="M232.121 86.1213C233.293 84.9497 233.293 83.0503 232.121 81.8787L213.029 62.7868C211.858 61.6152 209.958 61.6152 208.787 62.7868C207.615 63.9584 207.615 65.8579 208.787 67.0294L225.757 84L208.787 100.971C207.615 102.142 207.615 104.042 208.787 105.213C209.958 106.385 211.858 106.385 213.029 105.213L232.121 86.1213ZM190 87H230V81H190V87Z" fill="black"/>
<path d="M460.121 86.1213C461.293 84.9497 461.293 83.0503 460.121 81.8787L441.029 62.7868C439.858 61.6152 437.958 61.6152 436.787 62.7868C435.615 63.9584 435.615 65.8579 436.787 67.0294L453.757 84L436.787 100.971C435.615 102.142 435.615 104.042 436.787 105.213C437.958 106.385 439.858 106.385 441.029 105.213L460.121 86.1213ZM418 87H458V81H418V87Z" fill="black"/>
<path d="M479.791 151.254H473.393V169H470.781V151.254H464.396V149.094H479.791V151.254ZM489.922 169C489.776 168.708 489.658 168.189 489.566 167.441C488.391 168.663 486.987 169.273 485.355 169.273C483.897 169.273 482.699 168.863 481.76 168.043C480.83 167.214 480.365 166.165 480.365 164.898C480.365 163.358 480.949 162.164 482.115 161.316C483.291 160.46 484.941 160.031 487.064 160.031H489.525V158.869C489.525 157.985 489.261 157.283 488.732 156.764C488.204 156.235 487.424 155.971 486.395 155.971C485.492 155.971 484.736 156.199 484.125 156.654C483.514 157.11 483.209 157.661 483.209 158.309H480.666C480.666 157.57 480.926 156.859 481.445 156.176C481.974 155.483 482.685 154.936 483.578 154.535C484.48 154.134 485.469 153.934 486.545 153.934C488.249 153.934 489.585 154.362 490.551 155.219C491.517 156.066 492.018 157.238 492.055 158.732V165.541C492.055 166.899 492.228 167.979 492.574 168.781V169H489.922ZM485.725 167.072C486.518 167.072 487.27 166.867 487.98 166.457C488.691 166.047 489.206 165.514 489.525 164.857V161.822H487.543C484.444 161.822 482.895 162.729 482.895 164.543C482.895 165.336 483.159 165.956 483.688 166.402C484.216 166.849 484.895 167.072 485.725 167.072ZM498.768 169H496.238V154.207H498.768V169ZM496.033 150.283C496.033 149.873 496.156 149.527 496.402 149.244C496.658 148.962 497.031 148.82 497.523 148.82C498.016 148.82 498.389 148.962 498.645 149.244C498.9 149.527 499.027 149.873 499.027 150.283C499.027 150.693 498.9 151.035 498.645 151.309C498.389 151.582 498.016 151.719 497.523 151.719C497.031 151.719 496.658 151.582 496.402 151.309C496.156 151.035 496.033 150.693 496.033 150.283ZM515.926 165.514L518.77 154.207H521.299L516.992 169H514.941L511.346 157.789L507.846 169H505.795L501.502 154.207H504.018L506.93 165.281L510.375 154.207H512.412L515.926 165.514ZM526.631 169H524.102V148H526.631V169ZM533.439 169H530.91V154.207H533.439V169ZM530.705 150.283C530.705 149.873 530.828 149.527 531.074 149.244C531.329 148.962 531.703 148.82 532.195 148.82C532.688 148.82 533.061 148.962 533.316 149.244C533.572 149.527 533.699 149.873 533.699 150.283C533.699 150.693 533.572 151.035 533.316 151.309C533.061 151.582 532.688 151.719 532.195 151.719C531.703 151.719 531.329 151.582 531.074 151.309C530.828 151.035 530.705 150.693 530.705 150.283ZM539.893 154.207L539.975 156.066C541.105 154.645 542.581 153.934 544.404 153.934C547.531 153.934 549.107 155.697 549.135 159.225V169H546.605V159.211C546.596 158.145 546.35 157.356 545.867 156.846C545.393 156.335 544.65 156.08 543.639 156.08C542.818 156.08 542.098 156.299 541.479 156.736C540.859 157.174 540.376 157.748 540.029 158.459V169H537.5V154.207H539.893ZM552.334 161.48C552.334 159.211 552.872 157.388 553.947 156.012C555.023 154.626 556.431 153.934 558.172 153.934C559.904 153.934 561.275 154.526 562.287 155.711V148H564.816V169H562.492L562.369 167.414C561.357 168.654 559.949 169.273 558.145 169.273C556.431 169.273 555.032 168.572 553.947 167.168C552.872 165.764 552.334 163.932 552.334 161.672V161.48ZM554.863 161.768C554.863 163.445 555.21 164.757 555.902 165.705C556.595 166.653 557.552 167.127 558.773 167.127C560.378 167.127 561.549 166.407 562.287 164.967V158.172C561.531 156.777 560.368 156.08 558.801 156.08C557.561 156.08 556.595 156.559 555.902 157.516C555.21 158.473 554.863 159.89 554.863 161.768ZM590.738 162.684C590.492 164.789 589.713 166.416 588.4 167.564C587.097 168.704 585.361 169.273 583.191 169.273C580.84 169.273 578.953 168.43 577.531 166.744C576.118 165.058 575.412 162.802 575.412 159.977V158.062C575.412 156.212 575.74 154.585 576.396 153.182C577.062 151.778 578.001 150.702 579.213 149.955C580.425 149.199 581.829 148.82 583.424 148.82C585.538 148.82 587.234 149.413 588.51 150.598C589.786 151.773 590.529 153.405 590.738 155.492H588.1C587.872 153.906 587.375 152.758 586.609 152.047C585.853 151.336 584.791 150.98 583.424 150.98C581.747 150.98 580.43 151.6 579.473 152.84C578.525 154.079 578.051 155.843 578.051 158.131V160.059C578.051 162.219 578.502 163.937 579.404 165.213C580.307 166.489 581.569 167.127 583.191 167.127C584.65 167.127 585.766 166.799 586.541 166.143C587.325 165.477 587.844 164.324 588.1 162.684H590.738ZM600.199 160.127C597.948 159.48 596.307 158.687 595.277 157.748C594.257 156.8 593.746 155.633 593.746 154.248C593.746 152.68 594.37 151.386 595.619 150.365C596.877 149.335 598.508 148.82 600.514 148.82C601.881 148.82 603.098 149.085 604.164 149.613C605.24 150.142 606.069 150.871 606.652 151.801C607.245 152.73 607.541 153.747 607.541 154.85H604.902C604.902 153.646 604.52 152.703 603.754 152.02C602.988 151.327 601.908 150.98 600.514 150.98C599.219 150.98 598.208 151.268 597.479 151.842C596.758 152.407 596.398 153.195 596.398 154.207C596.398 155.018 596.74 155.706 597.424 156.271C598.117 156.827 599.288 157.338 600.938 157.803C602.596 158.268 603.891 158.783 604.82 159.348C605.759 159.904 606.452 160.555 606.898 161.303C607.354 162.05 607.582 162.93 607.582 163.941C607.582 165.555 606.953 166.849 605.695 167.824C604.438 168.79 602.756 169.273 600.65 169.273C599.283 169.273 598.007 169.014 596.822 168.494C595.637 167.965 594.721 167.245 594.074 166.334C593.436 165.423 593.117 164.388 593.117 163.23H595.756C595.756 164.434 596.198 165.386 597.082 166.088C597.975 166.781 599.165 167.127 600.65 167.127C602.036 167.127 603.098 166.844 603.836 166.279C604.574 165.714 604.943 164.944 604.943 163.969C604.943 162.993 604.602 162.242 603.918 161.713C603.234 161.175 601.995 160.646 600.199 160.127ZM616.824 160.127C614.573 159.48 612.932 158.687 611.902 157.748C610.882 156.8 610.371 155.633 610.371 154.248C610.371 152.68 610.995 151.386 612.244 150.365C613.502 149.335 615.133 148.82 617.139 148.82C618.506 148.82 619.723 149.085 620.789 149.613C621.865 150.142 622.694 150.871 623.277 151.801C623.87 152.73 624.166 153.747 624.166 154.85H621.527C621.527 153.646 621.145 152.703 620.379 152.02C619.613 151.327 618.533 150.98 617.139 150.98C615.844 150.98 614.833 151.268 614.104 151.842C613.383 152.407 613.023 153.195 613.023 154.207C613.023 155.018 613.365 155.706 614.049 156.271C614.742 156.827 615.913 157.338 617.562 157.803C619.221 158.268 620.516 158.783 621.445 159.348C622.384 159.904 623.077 160.555 623.523 161.303C623.979 162.05 624.207 162.93 624.207 163.941C624.207 165.555 623.578 166.849 622.32 167.824C621.062 168.79 619.381 169.273 617.275 169.273C615.908 169.273 614.632 169.014 613.447 168.494C612.262 167.965 611.346 167.245 610.699 166.334C610.061 165.423 609.742 164.388 609.742 163.23H612.381C612.381 164.434 612.823 165.386 613.707 166.088C614.6 166.781 615.79 167.127 617.275 167.127C618.661 167.127 619.723 166.844 620.461 166.279C621.199 165.714 621.568 164.944 621.568 163.969C621.568 162.993 621.227 162.242 620.543 161.713C619.859 161.175 618.62 160.646 616.824 160.127ZM520.516 186.229C520.516 184.757 520.711 183.344 521.102 181.99C521.499 180.636 522.088 179.406 522.869 178.299C523.65 177.192 524.461 176.411 525.301 175.955L525.672 177.146C524.721 177.876 523.94 178.989 523.328 180.486C522.723 181.984 522.391 183.66 522.332 185.516L522.322 186.346C522.322 188.859 522.781 191.04 523.699 192.889C524.253 193.995 524.91 194.861 525.672 195.486L525.301 196.59C524.435 196.108 523.608 195.301 522.82 194.168C521.284 191.954 520.516 189.308 520.516 186.229ZM538.162 187.488C537.986 188.992 537.43 190.154 536.492 190.975C535.561 191.788 534.321 192.195 532.771 192.195C531.092 192.195 529.744 191.593 528.729 190.389C527.719 189.184 527.215 187.573 527.215 185.555V184.188C527.215 182.866 527.449 181.704 527.918 180.701C528.393 179.699 529.064 178.93 529.93 178.396C530.796 177.856 531.798 177.586 532.938 177.586C534.448 177.586 535.659 178.009 536.57 178.855C537.482 179.695 538.012 180.861 538.162 182.352H536.277C536.115 181.219 535.76 180.398 535.213 179.891C534.673 179.383 533.914 179.129 532.938 179.129C531.74 179.129 530.799 179.572 530.115 180.457C529.438 181.342 529.1 182.602 529.1 184.236V185.613C529.1 187.156 529.422 188.383 530.066 189.295C530.711 190.206 531.613 190.662 532.771 190.662C533.813 190.662 534.611 190.428 535.164 189.959C535.724 189.484 536.095 188.66 536.277 187.488H538.162ZM544.92 185.662C543.312 185.2 542.14 184.633 541.404 183.963C540.675 183.286 540.311 182.452 540.311 181.463C540.311 180.343 540.757 179.419 541.648 178.689C542.547 177.954 543.712 177.586 545.145 177.586C546.121 177.586 546.99 177.775 547.752 178.152C548.52 178.53 549.113 179.051 549.529 179.715C549.952 180.379 550.164 181.105 550.164 181.893H548.279C548.279 181.033 548.006 180.359 547.459 179.871C546.912 179.376 546.141 179.129 545.145 179.129C544.22 179.129 543.497 179.334 542.977 179.744C542.462 180.148 542.205 180.711 542.205 181.434C542.205 182.013 542.449 182.505 542.938 182.908C543.432 183.305 544.269 183.67 545.447 184.002C546.632 184.334 547.557 184.702 548.221 185.105C548.891 185.503 549.386 185.968 549.705 186.502C550.031 187.036 550.193 187.664 550.193 188.387C550.193 189.539 549.744 190.464 548.846 191.16C547.947 191.85 546.746 192.195 545.242 192.195C544.266 192.195 543.354 192.01 542.508 191.639C541.661 191.261 541.007 190.747 540.545 190.096C540.089 189.445 539.861 188.706 539.861 187.879H541.746C541.746 188.738 542.062 189.419 542.693 189.92C543.331 190.415 544.181 190.662 545.242 190.662C546.232 190.662 546.99 190.46 547.518 190.057C548.045 189.653 548.309 189.103 548.309 188.406C548.309 187.71 548.064 187.173 547.576 186.795C547.088 186.411 546.202 186.033 544.92 185.662ZM556.795 185.662C555.187 185.2 554.015 184.633 553.279 183.963C552.55 183.286 552.186 182.452 552.186 181.463C552.186 180.343 552.632 179.419 553.523 178.689C554.422 177.954 555.587 177.586 557.02 177.586C557.996 177.586 558.865 177.775 559.627 178.152C560.395 178.53 560.988 179.051 561.404 179.715C561.827 180.379 562.039 181.105 562.039 181.893H560.154C560.154 181.033 559.881 180.359 559.334 179.871C558.787 179.376 558.016 179.129 557.02 179.129C556.095 179.129 555.372 179.334 554.852 179.744C554.337 180.148 554.08 180.711 554.08 181.434C554.08 182.013 554.324 182.505 554.812 182.908C555.307 183.305 556.144 183.67 557.322 184.002C558.507 184.334 559.432 184.702 560.096 185.105C560.766 185.503 561.261 185.968 561.58 186.502C561.906 187.036 562.068 187.664 562.068 188.387C562.068 189.539 561.619 190.464 560.721 191.16C559.822 191.85 558.621 192.195 557.117 192.195C556.141 192.195 555.229 192.01 554.383 191.639C553.536 191.261 552.882 190.747 552.42 190.096C551.964 189.445 551.736 188.706 551.736 187.879H553.621C553.621 188.738 553.937 189.419 554.568 189.92C555.206 190.415 556.056 190.662 557.117 190.662C558.107 190.662 558.865 190.46 559.393 190.057C559.92 189.653 560.184 189.103 560.184 188.406C560.184 187.71 559.939 187.173 559.451 186.795C558.963 186.411 558.077 186.033 556.795 185.662ZM568.367 186.326C568.367 187.778 568.175 189.171 567.791 190.506C567.413 191.834 566.831 193.061 566.043 194.188C565.262 195.314 564.441 196.115 563.582 196.59L563.201 195.486C564.204 194.718 565.008 193.527 565.613 191.912C566.225 190.291 566.538 188.494 566.551 186.521V186.209C566.551 184.842 566.408 183.572 566.121 182.4C565.835 181.222 565.434 180.167 564.92 179.236C564.412 178.305 563.839 177.579 563.201 177.059L563.582 175.955C564.441 176.43 565.258 177.225 566.033 178.338C566.814 179.451 567.397 180.678 567.781 182.02C568.172 183.361 568.367 184.796 568.367 186.326Z" fill="#38B2AC"/>
<path d="M283.939 168.854H293.373V171H281.301V151.094H283.939V168.854ZM298.719 171H296.189V156.207H298.719V171ZM295.984 152.283C295.984 151.873 296.107 151.527 296.354 151.244C296.609 150.962 296.982 150.82 297.475 150.82C297.967 150.82 298.34 150.962 298.596 151.244C298.851 151.527 298.979 151.873 298.979 152.283C298.979 152.693 298.851 153.035 298.596 153.309C298.34 153.582 297.967 153.719 297.475 153.719C296.982 153.719 296.609 153.582 296.354 153.309C296.107 153.035 295.984 152.693 295.984 152.283ZM307.66 167.568L311.324 156.207H313.908L308.604 171H306.676L301.316 156.207H303.9L307.66 167.568ZM322.289 171.273C320.284 171.273 318.652 170.617 317.395 169.305C316.137 167.983 315.508 166.219 315.508 164.014V163.549C315.508 162.081 315.786 160.773 316.342 159.625C316.907 158.467 317.691 157.565 318.693 156.918C319.705 156.262 320.799 155.934 321.975 155.934C323.898 155.934 325.393 156.567 326.459 157.834C327.525 159.101 328.059 160.915 328.059 163.275V164.328H318.037C318.074 165.786 318.497 166.967 319.309 167.869C320.129 168.762 321.168 169.209 322.426 169.209C323.319 169.209 324.076 169.027 324.695 168.662C325.315 168.298 325.857 167.814 326.322 167.213L327.867 168.416C326.628 170.321 324.768 171.273 322.289 171.273ZM321.975 158.012C320.954 158.012 320.097 158.385 319.404 159.133C318.712 159.871 318.283 160.91 318.119 162.25H325.529V162.059C325.456 160.773 325.11 159.78 324.49 159.078C323.87 158.367 323.032 158.012 321.975 158.012ZM344.096 167.514L346.939 156.207H349.469L345.162 171H343.111L339.516 159.789L336.016 171H333.965L329.672 156.207H332.188L335.1 167.281L338.545 156.207H340.582L344.096 167.514ZM354.801 171H352.271V156.207H354.801V171ZM352.066 152.283C352.066 151.873 352.189 151.527 352.436 151.244C352.691 150.962 353.064 150.82 353.557 150.82C354.049 150.82 354.423 150.962 354.678 151.244C354.933 151.527 355.061 151.873 355.061 152.283C355.061 152.693 354.933 153.035 354.678 153.309C354.423 153.582 354.049 153.719 353.557 153.719C353.064 153.719 352.691 153.582 352.436 153.309C352.189 153.035 352.066 152.693 352.066 152.283ZM366.012 158.477C365.629 158.413 365.214 158.381 364.768 158.381C363.109 158.381 361.983 159.087 361.391 160.5V171H358.861V156.207H361.322L361.363 157.916C362.193 156.594 363.368 155.934 364.891 155.934C365.383 155.934 365.757 155.997 366.012 156.125V158.477ZM374.215 171.273C372.21 171.273 370.578 170.617 369.32 169.305C368.062 167.983 367.434 166.219 367.434 164.014V163.549C367.434 162.081 367.712 160.773 368.268 159.625C368.833 158.467 369.617 157.565 370.619 156.918C371.631 156.262 372.725 155.934 373.9 155.934C375.824 155.934 377.318 156.567 378.385 157.834C379.451 159.101 379.984 160.915 379.984 163.275V164.328H369.963C369.999 165.786 370.423 166.967 371.234 167.869C372.055 168.762 373.094 169.209 374.352 169.209C375.245 169.209 376.001 169.027 376.621 168.662C377.241 168.298 377.783 167.814 378.248 167.213L379.793 168.416C378.553 170.321 376.694 171.273 374.215 171.273ZM373.9 158.012C372.88 158.012 372.023 158.385 371.33 159.133C370.637 159.871 370.209 160.91 370.045 162.25H377.455V162.059C377.382 160.773 377.036 159.78 376.416 159.078C375.796 158.367 374.958 158.012 373.9 158.012ZM266.787 188.229C266.787 186.757 266.982 185.344 267.373 183.99C267.77 182.636 268.359 181.406 269.141 180.299C269.922 179.192 270.732 178.411 271.572 177.955L271.943 179.146C270.993 179.876 270.212 180.989 269.6 182.486C268.994 183.984 268.662 185.66 268.604 187.516L268.594 188.346C268.594 190.859 269.053 193.04 269.971 194.889C270.524 195.995 271.182 196.861 271.943 197.486L271.572 198.59C270.706 198.108 269.88 197.301 269.092 196.168C267.555 193.954 266.787 191.308 266.787 188.229ZM277.93 192.721C278.574 192.721 279.137 192.525 279.619 192.135C280.101 191.744 280.368 191.256 280.42 190.67H282.129C282.096 191.275 281.888 191.852 281.504 192.398C281.12 192.945 280.605 193.382 279.961 193.707C279.323 194.033 278.646 194.195 277.93 194.195C276.491 194.195 275.345 193.717 274.492 192.76C273.646 191.796 273.223 190.481 273.223 188.814V188.512C273.223 187.483 273.411 186.568 273.789 185.768C274.167 184.967 274.707 184.345 275.41 183.902C276.12 183.46 276.956 183.238 277.92 183.238C279.105 183.238 280.088 183.593 280.869 184.303C281.657 185.012 282.077 185.934 282.129 187.066H280.42C280.368 186.383 280.107 185.823 279.639 185.387C279.176 184.944 278.604 184.723 277.92 184.723C277.002 184.723 276.289 185.055 275.781 185.719C275.28 186.376 275.029 187.33 275.029 188.58V188.922C275.029 190.139 275.28 191.077 275.781 191.734C276.283 192.392 276.999 192.721 277.93 192.721ZM283.682 188.619C283.682 187.584 283.883 186.653 284.287 185.826C284.697 184.999 285.264 184.361 285.986 183.912C286.715 183.463 287.546 183.238 288.477 183.238C289.915 183.238 291.077 183.736 291.963 184.732C292.855 185.729 293.301 187.053 293.301 188.707V188.834C293.301 189.863 293.102 190.787 292.705 191.607C292.314 192.421 291.751 193.056 291.016 193.512C290.286 193.967 289.447 194.195 288.496 194.195C287.064 194.195 285.902 193.697 285.01 192.701C284.124 191.705 283.682 190.387 283.682 188.746V188.619ZM285.498 188.834C285.498 190.006 285.768 190.947 286.309 191.656C286.855 192.366 287.585 192.721 288.496 192.721C289.414 192.721 290.143 192.363 290.684 191.646C291.224 190.924 291.494 189.915 291.494 188.619C291.494 187.46 291.217 186.523 290.664 185.807C290.117 185.084 289.388 184.723 288.477 184.723C287.585 184.723 286.865 185.077 286.318 185.787C285.771 186.497 285.498 187.512 285.498 188.834ZM297.266 183.434L297.314 184.605C298.089 183.694 299.134 183.238 300.449 183.238C301.927 183.238 302.933 183.805 303.467 184.938C303.818 184.43 304.274 184.02 304.834 183.707C305.4 183.395 306.068 183.238 306.836 183.238C309.154 183.238 310.332 184.465 310.371 186.92V194H308.564V187.027C308.564 186.272 308.392 185.709 308.047 185.338C307.702 184.96 307.122 184.771 306.309 184.771C305.638 184.771 305.081 184.973 304.639 185.377C304.196 185.774 303.939 186.311 303.867 186.988V194H302.051V187.076C302.051 185.54 301.299 184.771 299.795 184.771C298.61 184.771 297.799 185.276 297.363 186.285V194H295.557V183.434H297.266ZM322.031 188.834C322.031 190.442 321.663 191.738 320.928 192.721C320.192 193.704 319.196 194.195 317.939 194.195C316.657 194.195 315.648 193.788 314.912 192.975V198.062H313.105V183.434H314.756L314.844 184.605C315.579 183.694 316.602 183.238 317.91 183.238C319.18 183.238 320.182 183.717 320.918 184.674C321.66 185.631 322.031 186.962 322.031 188.668V188.834ZM320.225 188.629C320.225 187.438 319.971 186.497 319.463 185.807C318.955 185.117 318.258 184.771 317.373 184.771C316.279 184.771 315.459 185.257 314.912 186.227V191.275C315.452 192.239 316.279 192.721 317.393 192.721C318.258 192.721 318.945 192.379 319.453 191.695C319.967 191.005 320.225 189.983 320.225 188.629ZM323.857 188.619C323.857 187.584 324.059 186.653 324.463 185.826C324.873 184.999 325.439 184.361 326.162 183.912C326.891 183.463 327.721 183.238 328.652 183.238C330.091 183.238 331.253 183.736 332.139 184.732C333.031 185.729 333.477 187.053 333.477 188.707V188.834C333.477 189.863 333.278 190.787 332.881 191.607C332.49 192.421 331.927 193.056 331.191 193.512C330.462 193.967 329.622 194.195 328.672 194.195C327.24 194.195 326.077 193.697 325.186 192.701C324.3 191.705 323.857 190.387 323.857 188.746V188.619ZM325.674 188.834C325.674 190.006 325.944 190.947 326.484 191.656C327.031 192.366 327.76 192.721 328.672 192.721C329.59 192.721 330.319 192.363 330.859 191.646C331.4 190.924 331.67 189.915 331.67 188.619C331.67 187.46 331.393 186.523 330.84 185.807C330.293 185.084 329.564 184.723 328.652 184.723C327.76 184.723 327.041 185.077 326.494 185.787C325.947 186.497 325.674 187.512 325.674 188.834ZM337.451 183.434L337.51 184.762C338.317 183.746 339.372 183.238 340.674 183.238C342.907 183.238 344.033 184.498 344.053 187.018V194H342.246V187.008C342.24 186.246 342.064 185.683 341.719 185.318C341.38 184.954 340.85 184.771 340.127 184.771C339.541 184.771 339.027 184.928 338.584 185.24C338.141 185.553 337.796 185.963 337.549 186.471V194H335.742V183.434H337.451ZM351.162 194.195C349.73 194.195 348.564 193.727 347.666 192.789C346.768 191.845 346.318 190.585 346.318 189.01V188.678C346.318 187.63 346.517 186.695 346.914 185.875C347.318 185.048 347.878 184.404 348.594 183.941C349.316 183.473 350.098 183.238 350.938 183.238C352.311 183.238 353.379 183.691 354.141 184.596C354.902 185.501 355.283 186.796 355.283 188.482V189.234H348.125C348.151 190.276 348.454 191.119 349.033 191.764C349.619 192.402 350.361 192.721 351.26 192.721C351.898 192.721 352.438 192.59 352.881 192.33C353.324 192.07 353.711 191.725 354.043 191.295L355.146 192.154C354.261 193.515 352.933 194.195 351.162 194.195ZM350.938 184.723C350.208 184.723 349.596 184.99 349.102 185.523C348.607 186.051 348.301 186.793 348.184 187.75H353.477V187.613C353.424 186.695 353.177 185.986 352.734 185.484C352.292 184.977 351.693 184.723 350.938 184.723ZM359.092 183.434L359.15 184.762C359.958 183.746 361.012 183.238 362.314 183.238C364.548 183.238 365.674 184.498 365.693 187.018V194H363.887V187.008C363.88 186.246 363.704 185.683 363.359 185.318C363.021 184.954 362.49 184.771 361.768 184.771C361.182 184.771 360.667 184.928 360.225 185.24C359.782 185.553 359.437 185.963 359.189 186.471V194H357.383V183.434H359.092ZM370.869 180.875V183.434H372.842V184.83H370.869V191.383C370.869 191.806 370.957 192.125 371.133 192.34C371.309 192.548 371.608 192.652 372.031 192.652C372.24 192.652 372.526 192.613 372.891 192.535V194C372.415 194.13 371.953 194.195 371.504 194.195C370.697 194.195 370.088 193.951 369.678 193.463C369.268 192.975 369.062 192.281 369.062 191.383V184.83H367.139V183.434H369.062V180.875H370.869ZM379.346 194.195C377.913 194.195 376.748 193.727 375.85 192.789C374.951 191.845 374.502 190.585 374.502 189.01V188.678C374.502 187.63 374.701 186.695 375.098 185.875C375.501 185.048 376.061 184.404 376.777 183.941C377.5 183.473 378.281 183.238 379.121 183.238C380.495 183.238 381.562 183.691 382.324 184.596C383.086 185.501 383.467 186.796 383.467 188.482V189.234H376.309C376.335 190.276 376.637 191.119 377.217 191.764C377.803 192.402 378.545 192.721 379.443 192.721C380.081 192.721 380.622 192.59 381.064 192.33C381.507 192.07 381.895 191.725 382.227 191.295L383.33 192.154C382.445 193.515 381.117 194.195 379.346 194.195ZM379.121 184.723C378.392 184.723 377.78 184.99 377.285 185.523C376.79 186.051 376.484 186.793 376.367 187.75H381.66V187.613C381.608 186.695 381.361 185.986 380.918 185.484C380.475 184.977 379.876 184.723 379.121 184.723ZM391.719 191.197C391.719 190.709 391.533 190.331 391.162 190.064C390.798 189.791 390.156 189.557 389.238 189.361C388.327 189.166 387.601 188.932 387.061 188.658C386.527 188.385 386.13 188.059 385.869 187.682C385.615 187.304 385.488 186.855 385.488 186.334C385.488 185.468 385.853 184.736 386.582 184.137C387.318 183.538 388.255 183.238 389.395 183.238C390.592 183.238 391.562 183.548 392.305 184.166C393.053 184.785 393.428 185.576 393.428 186.539H391.611C391.611 186.044 391.4 185.618 390.977 185.26C390.56 184.902 390.033 184.723 389.395 184.723C388.737 184.723 388.223 184.866 387.852 185.152C387.48 185.439 387.295 185.813 387.295 186.275C387.295 186.712 387.467 187.04 387.812 187.262C388.158 187.483 388.779 187.695 389.678 187.896C390.583 188.098 391.315 188.339 391.875 188.619C392.435 188.899 392.848 189.238 393.115 189.635C393.389 190.025 393.525 190.504 393.525 191.07C393.525 192.014 393.148 192.773 392.393 193.346C391.637 193.912 390.658 194.195 389.453 194.195C388.607 194.195 387.858 194.046 387.207 193.746C386.556 193.447 386.045 193.03 385.674 192.496C385.309 191.956 385.127 191.373 385.127 190.748H386.934C386.966 191.354 387.207 191.835 387.656 192.193C388.112 192.545 388.711 192.721 389.453 192.721C390.137 192.721 390.684 192.584 391.094 192.311C391.51 192.031 391.719 191.66 391.719 191.197ZM297.578 217H295.771V202H297.578V217ZM300 211.619C300 210.584 300.202 209.653 300.605 208.826C301.016 207.999 301.582 207.361 302.305 206.912C303.034 206.463 303.864 206.238 304.795 206.238C306.234 206.238 307.396 206.736 308.281 207.732C309.173 208.729 309.619 210.053 309.619 211.707V211.834C309.619 212.863 309.421 213.787 309.023 214.607C308.633 215.421 308.07 216.056 307.334 216.512C306.605 216.967 305.765 217.195 304.814 217.195C303.382 217.195 302.22 216.697 301.328 215.701C300.443 214.705 300 213.387 300 211.746V211.619ZM301.816 211.834C301.816 213.006 302.087 213.947 302.627 214.656C303.174 215.366 303.903 215.721 304.814 215.721C305.732 215.721 306.462 215.363 307.002 214.646C307.542 213.924 307.812 212.915 307.812 211.619C307.812 210.46 307.536 209.523 306.982 208.807C306.436 208.084 305.706 207.723 304.795 207.723C303.903 207.723 303.184 208.077 302.637 208.787C302.09 209.497 301.816 210.512 301.816 211.834ZM305.615 202H307.803L305.186 204.871H303.73L305.615 202ZM311.455 211.629C311.455 209.982 311.836 208.673 312.598 207.703C313.359 206.727 314.368 206.238 315.625 206.238C316.914 206.238 317.92 206.694 318.643 207.605L318.73 206.434H320.381V216.746C320.381 218.113 319.974 219.191 319.16 219.979C318.353 220.766 317.266 221.16 315.898 221.16C315.137 221.16 314.391 220.997 313.662 220.672C312.933 220.346 312.376 219.9 311.992 219.334L312.93 218.25C313.704 219.207 314.652 219.686 315.771 219.686C316.65 219.686 317.334 219.438 317.822 218.943C318.317 218.449 318.564 217.752 318.564 216.854V215.945C317.842 216.779 316.855 217.195 315.605 217.195C314.368 217.195 313.366 216.697 312.598 215.701C311.836 214.705 311.455 213.348 311.455 211.629ZM313.271 211.834C313.271 213.025 313.516 213.963 314.004 214.646C314.492 215.324 315.176 215.662 316.055 215.662C317.194 215.662 318.031 215.145 318.564 214.109V209.285C318.011 208.276 317.181 207.771 316.074 207.771C315.195 207.771 314.508 208.113 314.014 208.797C313.519 209.48 313.271 210.493 313.271 211.834ZM325.078 217H323.271V206.434H325.078V217ZM323.125 203.631C323.125 203.338 323.213 203.09 323.389 202.889C323.571 202.687 323.838 202.586 324.189 202.586C324.541 202.586 324.808 202.687 324.99 202.889C325.173 203.09 325.264 203.338 325.264 203.631C325.264 203.924 325.173 204.168 324.99 204.363C324.808 204.559 324.541 204.656 324.189 204.656C323.838 204.656 323.571 204.559 323.389 204.363C323.213 204.168 323.125 203.924 323.125 203.631ZM332.217 215.721C332.861 215.721 333.424 215.525 333.906 215.135C334.388 214.744 334.655 214.256 334.707 213.67H336.416C336.383 214.275 336.175 214.852 335.791 215.398C335.407 215.945 334.893 216.382 334.248 216.707C333.61 217.033 332.933 217.195 332.217 217.195C330.778 217.195 329.632 216.717 328.779 215.76C327.933 214.796 327.51 213.481 327.51 211.814V211.512C327.51 210.483 327.699 209.568 328.076 208.768C328.454 207.967 328.994 207.345 329.697 206.902C330.407 206.46 331.243 206.238 332.207 206.238C333.392 206.238 334.375 206.593 335.156 207.303C335.944 208.012 336.364 208.934 336.416 210.066H334.707C334.655 209.383 334.395 208.823 333.926 208.387C333.464 207.944 332.891 207.723 332.207 207.723C331.289 207.723 330.576 208.055 330.068 208.719C329.567 209.376 329.316 210.33 329.316 211.58V211.922C329.316 213.139 329.567 214.077 330.068 214.734C330.57 215.392 331.286 215.721 332.217 215.721ZM337.969 211.619C337.969 210.584 338.171 209.653 338.574 208.826C338.984 207.999 339.551 207.361 340.273 206.912C341.003 206.463 341.833 206.238 342.764 206.238C344.202 206.238 345.365 206.736 346.25 207.732C347.142 208.729 347.588 210.053 347.588 211.707V211.834C347.588 212.863 347.389 213.787 346.992 214.607C346.602 215.421 346.038 216.056 345.303 216.512C344.574 216.967 343.734 217.195 342.783 217.195C341.351 217.195 340.189 216.697 339.297 215.701C338.411 214.705 337.969 213.387 337.969 211.746V211.619ZM339.785 211.834C339.785 213.006 340.055 213.947 340.596 214.656C341.143 215.366 341.872 215.721 342.783 215.721C343.701 215.721 344.43 215.363 344.971 214.646C345.511 213.924 345.781 212.915 345.781 211.619C345.781 210.46 345.505 209.523 344.951 208.807C344.404 208.084 343.675 207.723 342.764 207.723C341.872 207.723 341.152 208.077 340.605 208.787C340.059 209.497 339.785 210.512 339.785 211.834ZM356.006 214.197C356.006 213.709 355.82 213.331 355.449 213.064C355.085 212.791 354.443 212.557 353.525 212.361C352.614 212.166 351.888 211.932 351.348 211.658C350.814 211.385 350.417 211.059 350.156 210.682C349.902 210.304 349.775 209.855 349.775 209.334C349.775 208.468 350.14 207.736 350.869 207.137C351.605 206.538 352.542 206.238 353.682 206.238C354.88 206.238 355.85 206.548 356.592 207.166C357.34 207.785 357.715 208.576 357.715 209.539H355.898C355.898 209.044 355.687 208.618 355.264 208.26C354.847 207.902 354.32 207.723 353.682 207.723C353.024 207.723 352.51 207.866 352.139 208.152C351.768 208.439 351.582 208.813 351.582 209.275C351.582 209.712 351.755 210.04 352.1 210.262C352.445 210.483 353.066 210.695 353.965 210.896C354.87 211.098 355.602 211.339 356.162 211.619C356.722 211.899 357.135 212.238 357.402 212.635C357.676 213.025 357.812 213.504 357.812 214.07C357.812 215.014 357.435 215.773 356.68 216.346C355.924 216.912 354.945 217.195 353.74 217.195C352.894 217.195 352.145 217.046 351.494 216.746C350.843 216.447 350.332 216.03 349.961 215.496C349.596 214.956 349.414 214.373 349.414 213.748H351.221C351.253 214.354 351.494 214.835 351.943 215.193C352.399 215.545 352.998 215.721 353.74 215.721C354.424 215.721 354.971 215.584 355.381 215.311C355.798 215.031 356.006 214.66 356.006 214.197ZM364.336 211.326C364.336 212.778 364.144 214.171 363.76 215.506C363.382 216.834 362.799 218.061 362.012 219.188C361.23 220.314 360.41 221.115 359.551 221.59L359.17 220.486C360.173 219.718 360.977 218.527 361.582 216.912C362.194 215.291 362.507 213.494 362.52 211.521V211.209C362.52 209.842 362.376 208.572 362.09 207.4C361.803 206.222 361.403 205.167 360.889 204.236C360.381 203.305 359.808 202.579 359.17 202.059L359.551 200.955C360.41 201.43 361.227 202.225 362.002 203.338C362.783 204.451 363.366 205.678 363.75 207.02C364.141 208.361 364.336 209.796 364.336 211.326Z" fill="#FB70A9"/>
<path d="M77.3105 168.854H86.7441V171H74.6719V151.094H77.3105V168.854ZM98.4746 171C98.3288 170.708 98.2103 170.189 98.1191 169.441C96.9434 170.663 95.5397 171.273 93.9082 171.273C92.4499 171.273 91.2513 170.863 90.3125 170.043C89.3828 169.214 88.918 168.165 88.918 166.898C88.918 165.358 89.5013 164.164 90.668 163.316C91.8438 162.46 93.4935 162.031 95.6172 162.031H98.0781V160.869C98.0781 159.985 97.8138 159.283 97.2852 158.764C96.7565 158.235 95.9772 157.971 94.9473 157.971C94.0449 157.971 93.2884 158.199 92.6777 158.654C92.0671 159.11 91.7617 159.661 91.7617 160.309H89.2188C89.2188 159.57 89.4785 158.859 89.998 158.176C90.5267 157.483 91.2376 156.936 92.1309 156.535C93.0332 156.134 94.0221 155.934 95.0977 155.934C96.8021 155.934 98.1374 156.362 99.1035 157.219C100.07 158.066 100.571 159.238 100.607 160.732V167.541C100.607 168.899 100.781 169.979 101.127 170.781V171H98.4746ZM94.2773 169.072C95.0703 169.072 95.8223 168.867 96.5332 168.457C97.2441 168.047 97.7591 167.514 98.0781 166.857V163.822H96.0957C92.9967 163.822 91.4473 164.729 91.4473 166.543C91.4473 167.336 91.7116 167.956 92.2402 168.402C92.7689 168.849 93.4479 169.072 94.2773 169.072ZM111.723 158.477C111.34 158.413 110.925 158.381 110.479 158.381C108.82 158.381 107.694 159.087 107.102 160.5V171H104.572V156.207H107.033L107.074 157.916C107.904 156.594 109.079 155.934 110.602 155.934C111.094 155.934 111.467 155.997 111.723 156.125V158.477ZM122.646 171C122.501 170.708 122.382 170.189 122.291 169.441C121.115 170.663 119.712 171.273 118.08 171.273C116.622 171.273 115.423 170.863 114.484 170.043C113.555 169.214 113.09 168.165 113.09 166.898C113.09 165.358 113.673 164.164 114.84 163.316C116.016 162.46 117.665 162.031 119.789 162.031H122.25V160.869C122.25 159.985 121.986 159.283 121.457 158.764C120.928 158.235 120.149 157.971 119.119 157.971C118.217 157.971 117.46 158.199 116.85 158.654C116.239 159.11 115.934 159.661 115.934 160.309H113.391C113.391 159.57 113.65 158.859 114.17 158.176C114.699 157.483 115.41 156.936 116.303 156.535C117.205 156.134 118.194 155.934 119.27 155.934C120.974 155.934 122.309 156.362 123.275 157.219C124.242 158.066 124.743 159.238 124.779 160.732V167.541C124.779 168.899 124.952 169.979 125.299 170.781V171H122.646ZM118.449 169.072C119.242 169.072 119.994 168.867 120.705 168.457C121.416 168.047 121.931 167.514 122.25 166.857V163.822H120.268C117.169 163.822 115.619 164.729 115.619 166.543C115.619 167.336 115.883 167.956 116.412 168.402C116.941 168.849 117.62 169.072 118.449 169.072ZM133.406 167.568L137.07 156.207H139.654L134.35 171H132.422L127.062 156.207H129.646L133.406 167.568ZM148.035 171.273C146.03 171.273 144.398 170.617 143.141 169.305C141.883 167.983 141.254 166.219 141.254 164.014V163.549C141.254 162.081 141.532 160.773 142.088 159.625C142.653 158.467 143.437 157.565 144.439 156.918C145.451 156.262 146.545 155.934 147.721 155.934C149.644 155.934 151.139 156.567 152.205 157.834C153.271 159.101 153.805 160.915 153.805 163.275V164.328H143.783C143.82 165.786 144.243 166.967 145.055 167.869C145.875 168.762 146.914 169.209 148.172 169.209C149.065 169.209 149.822 169.027 150.441 168.662C151.061 168.298 151.604 167.814 152.068 167.213L153.613 168.416C152.374 170.321 150.514 171.273 148.035 171.273ZM147.721 158.012C146.7 158.012 145.843 158.385 145.15 159.133C144.458 159.871 144.029 160.91 143.865 162.25H151.275V162.059C151.202 160.773 150.856 159.78 150.236 159.078C149.617 158.367 148.778 158.012 147.721 158.012ZM159.492 171H156.963V150H159.492V171ZM84.666 188.229C84.666 186.757 84.8613 185.344 85.252 183.99C85.6491 182.636 86.2383 181.406 87.0195 180.299C87.8008 179.192 88.6113 178.411 89.4512 177.955L89.8223 179.146C88.8717 179.876 88.0905 180.989 87.4785 182.486C86.873 183.984 86.541 185.66 86.4824 187.516L86.4727 188.346C86.4727 190.859 86.9316 193.04 87.8496 194.889C88.403 195.995 89.0605 196.861 89.8223 197.486L89.4512 198.59C88.5853 198.108 87.7585 197.301 86.9707 196.168C85.4342 193.954 84.666 191.308 84.666 188.229ZM93.2695 183.434L93.3184 184.605C94.0931 183.694 95.138 183.238 96.4531 183.238C97.931 183.238 98.9368 183.805 99.4707 184.938C99.8223 184.43 100.278 184.02 100.838 183.707C101.404 183.395 102.072 183.238 102.84 183.238C105.158 183.238 106.336 184.465 106.375 186.92V194H104.568V187.027C104.568 186.272 104.396 185.709 104.051 185.338C103.706 184.96 103.126 184.771 102.312 184.771C101.642 184.771 101.085 184.973 100.643 185.377C100.2 185.774 99.9427 186.311 99.8711 186.988V194H98.0547V187.076C98.0547 185.54 97.3027 184.771 95.7988 184.771C94.6139 184.771 93.8034 185.276 93.3672 186.285V194H91.5605V183.434H93.2695ZM108.631 188.619C108.631 187.584 108.833 186.653 109.236 185.826C109.646 184.999 110.213 184.361 110.936 183.912C111.665 183.463 112.495 183.238 113.426 183.238C114.865 183.238 116.027 183.736 116.912 184.732C117.804 185.729 118.25 187.053 118.25 188.707V188.834C118.25 189.863 118.051 190.787 117.654 191.607C117.264 192.421 116.701 193.056 115.965 193.512C115.236 193.967 114.396 194.195 113.445 194.195C112.013 194.195 110.851 193.697 109.959 192.701C109.074 191.705 108.631 190.387 108.631 188.746V188.619ZM110.447 188.834C110.447 190.006 110.717 190.947 111.258 191.656C111.805 192.366 112.534 192.721 113.445 192.721C114.363 192.721 115.092 192.363 115.633 191.646C116.173 190.924 116.443 189.915 116.443 188.619C116.443 187.46 116.167 186.523 115.613 185.807C115.066 185.084 114.337 184.723 113.426 184.723C112.534 184.723 111.814 185.077 111.268 185.787C110.721 186.497 110.447 187.512 110.447 188.834ZM122.967 180.875V183.434H124.939V184.83H122.967V191.383C122.967 191.806 123.055 192.125 123.23 192.34C123.406 192.548 123.706 192.652 124.129 192.652C124.337 192.652 124.624 192.613 124.988 192.535V194C124.513 194.13 124.051 194.195 123.602 194.195C122.794 194.195 122.186 193.951 121.775 193.463C121.365 192.975 121.16 192.281 121.16 191.383V184.83H119.236V183.434H121.16V180.875H122.967ZM126.385 188.619C126.385 187.584 126.587 186.653 126.99 185.826C127.4 184.999 127.967 184.361 128.689 183.912C129.419 183.463 130.249 183.238 131.18 183.238C132.618 183.238 133.781 183.736 134.666 184.732C135.558 185.729 136.004 187.053 136.004 188.707V188.834C136.004 189.863 135.805 190.787 135.408 191.607C135.018 192.421 134.454 193.056 133.719 193.512C132.99 193.967 132.15 194.195 131.199 194.195C129.767 194.195 128.605 193.697 127.713 192.701C126.827 191.705 126.385 190.387 126.385 188.746V188.619ZM128.201 188.834C128.201 190.006 128.471 190.947 129.012 191.656C129.559 192.366 130.288 192.721 131.199 192.721C132.117 192.721 132.846 192.363 133.387 191.646C133.927 190.924 134.197 189.915 134.197 188.619C134.197 187.46 133.921 186.523 133.367 185.807C132.82 185.084 132.091 184.723 131.18 184.723C130.288 184.723 129.568 185.077 129.021 185.787C128.475 186.497 128.201 187.512 128.201 188.834ZM143.377 185.055C143.104 185.009 142.807 184.986 142.488 184.986C141.303 184.986 140.499 185.491 140.076 186.5V194H138.27V183.434H140.027L140.057 184.654C140.649 183.71 141.489 183.238 142.576 183.238C142.928 183.238 143.195 183.284 143.377 183.375V185.055ZM149.217 188.326C149.217 189.778 149.025 191.171 148.641 192.506C148.263 193.834 147.68 195.061 146.893 196.188C146.111 197.314 145.291 198.115 144.432 198.59L144.051 197.486C145.053 196.718 145.857 195.527 146.463 193.912C147.075 192.291 147.387 190.494 147.4 188.521V188.209C147.4 186.842 147.257 185.572 146.971 184.4C146.684 183.222 146.284 182.167 145.77 181.236C145.262 180.305 144.689 179.579 144.051 179.059L144.432 177.955C145.291 178.43 146.108 179.225 146.883 180.338C147.664 181.451 148.247 182.678 148.631 184.02C149.021 185.361 149.217 186.796 149.217 188.326Z" fill="#FF2D20"/>
<defs>
<filter id="filter0_d" x="0" y="0" width="660" height="247" filterUnits="userSpaceOnUse" color-interpolation-filters="sRGB">
<feFlood flood-opacity="0" result="BackgroundImageFix"/>
<feColorMatrix in="SourceAlpha" type="matrix" values="0 0 0 0 0 0 0 0 0 0 0 0 0 0 0 0 0 0 127 0"/>
<feOffset dy="4"/>
<feGaussianBlur stdDeviation="2"/>
<feColorMatrix type="matrix" values="0 0 0 0 0 0 0 0 0 0 0 0 0 0 0 0 0 0 0.25 0"/>
<feBlend mode="normal" in2="BackgroundImageFix" result="effect1_dropShadow"/>
<feBlend mode="normal" in="SourceGraphic" in2="effect1_dropShadow" result="shape"/>
</filter>
<clipPath id="clip0">
<rect width="120" height="120" fill="white" transform="translate(270 24)"/>
</clipPath>
</defs>
</svg>
